<svg xmlns="http://www.w3.org/2000/svg" version="1.1" xmlns:xlink="http://www.w3.org/1999/xlink" width="512" height="512" x="0" y="0" viewBox="0 0 32 32" style="enable-background:new 0 0 512 512" xml:space="preserve" class=""><g><path d="M27 8h-4.22l-.43-1.73A3 3 0 0 0 19.44 4h-6.88a3 3 0 0 0-2.91 2.27L9.22 8H5a3 3 0 0 0-3 3v14a3 3 0 0 0 3 3h22a3 3 0 0 0 3-3V11a3 3 0 0 0-3-3zm1 17a1 1 0 0 1-1 1H5a1 1 0 0 1-1-1V11a1 1 0 0 1 1-1h5a1 1 0 0 0 1-.76l.62-2.48a1 1 0 0 1 1-.76h6.88a1 1 0 0 1 1 .76l.5 2.48a1 1 0 0 0 1 .76h5a1 1 0 0 1 1 1zM16 12a6 6 0 1 0 6 6 6 6 0 0 0-6-6zm0 10a4 4 0 1 1 4-4 4 4 0 0 1-4 4zM13 9a1 1 0 0 1 1-1h4a1 1 0 0 1 0 2h-4a1 1 0 0 1-1-1zm13 4.5a1.5 1.5 0 1 1-1.5-1.5 1.5 1.5 0 0 1 1.5 1.5z" fill="#000000" opacity="1" data-original="#000000"></path></g></svg>